<?xml version="1.0" standalone="no"?>
<!DOCTYPE svg PUBLIC "-//W3C//DTD SVG 20010904//EN"
 "http://www.w3.org/TR/2001/REC-SVG-20010904/DTD/svg10.dtd">
<svg version="1.0" xmlns="http://www.w3.org/2000/svg"
 width="256.000000pt" height="128.000000pt" viewBox="0 0 256.000000 128.000000"
 preserveAspectRatio="xMidYMid meet">

<g transform="translate(0.000000,128.000000) scale(0.100000,-0.100000)"
fill="#000000" stroke="none">
<path d="M936 1062 c-3 -4 -7 -28 -10 -52 -3 -24 -12 -48 -21 -52 -19 -11 -20
-38 -1 -38 9 0 16 -17 21 -50 7 -50 24 -70 59 -70 23 0 20 27 -4 33 -16 4 -20
14 -20 44 0 21 -5 44 -12 51 -9 9 -9 15 0 24 7 7 12 29 12 50 0 31 4 38 20 38
11 0 20 7 20 15 0 16 -55 22 -64 7z"/>
<path d="M1060 960 l0 -110 25 12 c24 11 25 16 25 90 l0 78 95 0 c149 0 201
-38 224 -162 15 -85 -7 -179 -53 -217 -19 -16 -20 -11 -17 55 3 57 -30 111
-74 120 -38 7 -85 -14 -109 -48 -36 -51 -9 -146 47 -164 22 -8 22 -8 -3 -15
-47 -13 -70 -10 -70 10 0 10 -7 35 -16 56 -21 51 -10 110 27 147 20 21 29 40
31 71 l3 42 84 5 c81 5 84 6 67 23 -15 15 -32 17 -105 15 l-86 -3 -5 -68 c-5
-69 -5 -69 -41 -81 -119 -41 -190 -138 -191 -261 0 -75 21 -128 74 -182 57
-59 124 -85 231 -91 l87 -5 0 117 0 117 -77 -3 c-72 -3 -78 -5 -81 -25 -3 -22
0 -23 52 -23 l56 0 0 -60 0 -60 -52 0 c-92 1 -171 52 -209 135 -23 51 -23 89
0 140 17 39 81 105 101 105 6 0 10 -37 10 -85 l0 -85 95 0 c105 0 152 14 197
57 25 24 36 27 100 27 l73 1 3 -82 3 -83 34 0 35 0 0 105 c0 87 -3 105 -15
105 -12 0 -15 15 -15 75 0 68 -2 75 -20 75 -17 0 -19 -8 -22 -67 l-3 -68 -40
-3 c-62 -4 -69 5 -55 72 12 60 9 76 -19 76 -14 0 -18 7 -16 36 1 20 8 39 15
44 23 14 -37 99 -89 127 -40 21 -57 23 -178 23 l-133 0 0 -110z m250 -200 c39
-39 14 -100 -41 -100 -34 0 -59 24 -59 56 0 29 33 64 60 64 11 0 29 -9 40 -20z"/>
<path d="M1531 992 c-23 -75 -25 -98 -13 -106 9 -5 47 163 39 171 -3 3 -15
-26 -26 -65z"/>
<path d="M1610 986 c0 -7 6 -19 14 -25 11 -9 12 -6 8 14 -5 26 -22 35 -22 11z"/>
<path d="M1619 918 c-7 -12 -19 -29 -28 -36 -14 -11 -13 -12 8 -10 18 2 27 11
32 32 10 38 4 45 -12 14z"/>
<path d="M1428 586 c-14 -10 -18 -28 -18 -74 0 -65 -15 -92 -51 -92 -29 0 -20
-34 9 -38 14 -2 33 7 52 27 28 28 30 34 30 110 0 45 -1 81 -2 81 -2 0 -11 -7
-20 -14z"/>
<path d="M1467 372 c-30 -74 -33 -96 -15 -90 19 7 71 158 54 158 -7 0 -25 -30
-39 -68z"/>
<path d="M1540 421 c0 -5 16 -19 35 -31 19 -12 35 -25 35 -29 0 -4 -16 -15
-35 -24 -19 -9 -35 -23 -35 -31 0 -11 14 -7 55 17 30 17 55 36 55 42 0 5 -23
22 -50 38 -55 30 -60 31 -60 18z"/>
</g>
</svg>
